PathFileType	4	(X/Y/Z)	/Volumes/GoogleDrive/My Drive/Research/Stanford/Projects/Digital Athlete Project/Sprinting/Sprint Simulation/sprinter/subjects/JA1/experimental_data/TRC/run0500cms.trc
DataRate	CameraRate	NumFrames	NumMarkers	Units	OrigDataRate	OrigDataStartFrame	OrigNumFrames
250.000000	250.000000	6	53	mm	250.000000	143	569
Frame#	Time	C7			RSH			LSH			MAN			T7			LARM			LELB			LFOREARM			LWR			RARM			RELB			RFOREARM			RWR			RASI			LASI			SACR			P1			P2			P3			LTHLP			LTHLD			LTHAP			LLEPI			LPAT			LTIAP			LTIAD			LTILAT			LLMAL			LHEEL			LMFS			LMFL			LP1MT			LTOE			LP5MT			RTHLP			RTHLD			RTHAP			RTHAD			RLEPI			RPAT			RTIAP			RTIAD			RTILAT			RLMAL			RHEEL			RMFS			RMFL			RP1MT			RTOE			RP5MT			LTHAD			x52			x53			
		X1	Y1	Z1	X2	Y2	Z2	X3	Y3	Z3	X4	Y4	Z4	X5	Y5	Z5	X6	Y6	Z6	X7	Y7	Z7	X8	Y8	Z8	X9	Y9	Z9	X10	Y10	Z10	X11	Y11	Z11	X12	Y12	Z12	X13	Y13	Z13	X14	Y14	Z14	X15	Y15	Z15	X16	Y16	Z16	X17	Y17	Z17	X18	Y18	Z18	X19	Y19	Z19	X20	Y20	Z20	X21	Y21	Z21	X22	Y22	Z22	X23	Y23	Z23	X24	Y24	Z24	X25	Y25	Z25	X26	Y26	Z26	X27	Y27	Z27	X28	Y28	Z28	X29	Y29	Z29	X30	Y30	Z30	X31	Y31	Z31	X32	Y32	Z32	X33	Y33	Z33	X34	Y34	Z34	X35	Y35	Z35	X36	Y36	Z36	X37	Y37	Z37	X38	Y38	Z38	X39	Y39	Z39	X40	Y40	Z40	X41	Y41	Z41	X42	Y42	Z42	X43	Y43	Z43	X44	Y44	Z44	X45	Y45	Z45	X46	Y46	Z46	X47	Y47	Z47	X48	Y48	Z48	X49	Y49	Z49	X50	Y50	Z50	X51	Y51	Z51	X52	Y52	Z52	X53	Y53	Z53	
143	0.572000	-2640.935059	1543.434326	134.151627	-2630.447021	1537.084229	306.662384	-2607.876221	1523.202148	-19.930723	-2508.364014	1446.620117	166.376678	-2705.486328	1352.441284	131.387909	-2599.802490	1336.588501	-123.192009	-2592.328369	1203.977661	-159.316406	-2476.596191	1245.281372	-87.884979	-2377.043945	1288.126343	-26.697678	-2760.442627	1436.513550	395.018890	-2875.028564	1362.647339	434.880005	-2839.966309	1220.263916	428.002258	-2817.705811	1093.258301	413.755981	-2520.067139	1075.039307	240.864044	-2536.416748	1047.775146	33.303867	-2707.271484	1117.319702	162.820023	-2720.864014	1090.140991	111.543068	-2720.762939	1087.961304	218.068420	-2752.538330	1035.378906	165.431961	-2736.939697	789.585815	-21.273832	-2780.223877	685.826477	-1.345534	-2616.642334	732.975525	51.036171	-2834.986572	575.679810	24.179153	-2759.303223	534.608765	88.491531	-2927.866211	427.590240	105.712791	-3029.817871	331.083282	112.051819	-3012.053711	408.482635	35.594124	-3156.893799	245.241760	66.901054	-3210.007568	289.157074	110.357643	-3110.181885	154.694321	132.603760	-3155.811279	154.390274	74.222908	-3128.395508	91.557121	186.407730	-3095.530273	71.663445	153.646011	-3161.218506	79.345657	65.471725	-2475.706299	875.700989	345.899170	-2378.474609	816.752197	336.872711	-2375.676270	949.998047	268.133606	-2298.511963	889.578369	265.597870	-2274.666504	717.037476	300.903015	-2190.154541	747.363281	252.061859	-2334.339355	527.845154	203.822891	-2409.714844	426.518005	180.537750	-2383.635254	535.992798	278.486389	-2496.805420	331.722015	226.904068	-2570.328613	339.719147	172.723740	-2406.527100	273.214172	187.865967	-2464.780029	265.456207	237.254013	-2380.317627	198.351242	148.080353	-2352.725342	200.859833	189.176468	-2423.049561	194.519272	265.308533	-2679.093994	636.967834	66.463089	-2805.256836	1022.232300	405.788940	-2326.446533	1309.902344	4.400775
144	0.576000	-2620.508789	1545.363647	134.242920	-2610.295410	1539.404907	306.634491	-2587.751465	1525.590576	-19.272528	-2487.923096	1449.214844	167.191376	-2684.010254	1354.099731	131.354645	-2578.020264	1339.076416	-122.603371	-2569.881348	1206.295532	-158.572342	-2456.291504	1252.046753	-86.730553	-2359.369141	1299.030151	-24.717432	-2741.622559	1441.461548	394.111572	-2857.393555	1369.016724	433.427795	-2823.496582	1226.466431	427.035553	-2801.824951	1099.035767	412.543152	-2498.527344	1076.945435	241.062042	-2514.059570	1049.192871	33.586422	-2685.207764	1119.504395	162.565918	-2698.278809	1092.579712	110.976799	-2698.944336	1089.963379	217.547852	-2730.691406	1037.731445	164.615326	-2718.074707	794.239807	-21.190340	-2762.569580	691.121521	-1.250204	-2598.515381	735.535217	51.258850	-2818.673828	581.191101	24.143803	-2743.498291	538.788879	88.484856	-2912.825439	433.440552	105.051338	-3015.473877	337.836700	111.058502	-2997.589844	415.589294	34.947044	-3142.862793	253.665100	65.570076	-3194.156250	299.594666	109.263779	-3099.592773	161.522003	131.172241	-3145.175781	162.846664	73.029068	-3119.826660	97.751755	184.303925	-3089.957275	73.635635	151.202133	-3155.850586	86.875473	65.320290	-2455.327393	876.554626	345.574707	-2358.672607	817.282410	336.463867	-2354.255371	951.670410	269.686249	-2278.045410	890.822205	266.709534	-2253.633301	717.796326	301.231506	-2169.459229	749.681335	252.725906	-2305.577637	525.349060	204.388092	-2376.364990	420.874207	181.047028	-2355.360107	531.550598	278.918213	-2459.092041	322.038422	226.792160	-2533.233643	327.009827	172.565018	-2365.227539	269.941589	189.704163	-2424.463867	257.106354	236.812653	-2337.187500	194.366287	147.050568	-2309.589111	198.251801	188.163040	-2379.761230	187.908646	264.448761	-2662.223633	640.359802	66.746872	-2789.705566	1027.771973	404.438477	-2310.108154	1322.909424	6.800744
145	0.580000	-2600.252930	1547.325317	134.383331	-2590.039551	1541.640381	306.651764	-2567.658203	1527.746460	-18.627506	-2467.478027	1451.736694	167.896927	-2663.153809	1356.005859	131.409821	-2556.570312	1341.444336	-121.870064	-2547.539795	1208.602173	-157.906158	-2436.479492	1258.493774	-85.150383	-2341.010986	1309.437378	-23.194431	-2722.577881	1446.280640	393.220154	-2839.607910	1375.220581	431.895538	-2806.638916	1232.336670	425.954620	-2785.574707	1104.563477	411.319672	-2476.998291	1078.643677	241.663727	-2491.778320	1050.564087	34.099457	-2662.953125	1121.472412	162.314072	-2676.331055	1094.866089	110.585724	-2677.297852	1091.748901	217.012238	-2708.841553	1039.780884	163.643692	-2698.602783	798.449036	-21.126799	-2744.391846	695.873108	-1.157880	-2580.026367	737.787476	52.502468	-2802.153076	586.477722	24.166004	-2727.030518	542.608704	88.215668	-2897.589355	439.104858	104.445824	-3000.963379	344.706726	110.133522	-2982.118164	422.388031	34.196083	-3129.651855	262.600769	64.440308	-3179.054932	309.657013	108.608055	-3088.673828	168.965179	129.881332	-3134.351562	171.897125	71.500961	-3110.371826	104.767754	181.960541	-3085.449219	76.205399	147.243759	-3149.007568	94.348007	64.438530	-2435.161621	877.061829	345.018280	-2338.783203	817.461426	335.865234	-2333.256592	952.572815	271.098511	-2257.263184	891.579529	267.585571	-2233.054199	717.856995	301.558655	-2149.220703	751.210815	253.477158	-2277.317627	522.727356	204.765793	-2343.214355	415.211456	181.309601	-2327.556885	526.667053	279.442566	-2421.477783	312.418365	226.712723	-2495.794189	314.267395	172.510696	-2325.283203	263.978271	189.195984	-2384.302002	248.821304	236.365143	-2293.932861	191.042374	146.277283	-2266.477539	196.118423	187.471313	-2336.297852	181.726242	263.482269	-2644.894531	643.582703	67.280991	-2773.794922	1033.108154	403.135284	-2292.489258	1335.329468	8.294688
146	0.584000	-2579.324707	1549.438843	134.625061	-2569.596436	1543.876831	306.607849	-2547.498291	1529.915039	-17.950296	-2446.970459	1454.058105	168.513138	-2641.937500	1357.671143	131.419113	-2535.398193	1343.597168	-121.133263	-2525.291016	1210.779419	-157.212845	-2416.684814	1264.328247	-84.197212	-2323.588867	1318.756714	-21.666153	-2703.410889	1450.845581	392.198914	-2821.524658	1381.062378	430.513641	-2789.450928	1238.000366	425.033569	-2768.885254	1109.849487	410.225220	-2455.321777	1080.038940	242.640991	-2469.125244	1051.879517	34.829998	-2640.790771	1123.385376	161.982544	-2654.251953	1097.126343	110.065750	-2655.671631	1093.412354	216.514847	-2687.081299	1041.815430	162.785217	-2678.585693	802.079163	-21.209064	-2725.641357	700.086060	-1.083836	-2560.995850	740.269714	53.423203	-2784.549316	591.203613	24.150330	-2709.982422	545.921997	88.123360	-2881.888672	444.722748	104.062889	-2986.433838	351.731171	109.423538	-2966.142090	429.013062	33.546314	-3116.420410	271.764648	63.501423	-3164.614746	319.497467	108.373955	-3077.465332	176.820953	128.055862	-3123.210449	181.112289	70.334068	-3100.701416	110.620476	179.791504	-3079.763184	81.031395	144.446579	-3141.705078	102.280640	63.312813	-2415.058350	877.305298	344.441528	-2319.345459	817.051514	335.216705	-2312.334229	952.701111	272.205017	-2237.433594	891.296692	268.516998	-2212.971924	717.329895	301.663635	-2129.187256	752.125610	254.087097	-2249.264160	519.724548	205.285599	-2310.419678	409.560730	181.688065	-2299.739258	521.527283	280.174347	-2384.476807	302.957214	226.721802	-2458.375488	301.763336	172.583893	-2285.725098	258.189423	188.380386	-2344.259277	240.926422	235.595322	-2251.334473	187.988922	145.440811	-2223.683594	194.259003	186.705261	-2292.764648	175.864273	262.724396	-2626.969482	646.579102	67.661163	-2757.384277	1038.182983	401.943848	-2276.272949	1346.420044	10.115265
147	0.588000	-2558.768555	1551.269165	134.669647	-2549.170898	1545.937744	306.608215	-2527.269531	1532.017090	-17.359785	-2426.682617	1455.881836	169.244110	-2620.740723	1359.476929	131.646927	-2514.038330	1345.693115	-120.562920	-2503.663330	1212.863892	-156.507401	-2396.622559	1269.928345	-83.584648	-2305.822754	1327.208130	-20.654400	-2684.032227	1455.025024	391.195099	-2803.289062	1386.556885	428.975555	-2771.988281	1243.305908	424.143524	-2751.947266	1114.767334	409.123932	-2433.856201	1081.330566	243.309189	-2447.308838	1053.457764	34.973473	-2619.167480	1125.251831	161.641037	-2632.388916	1099.176147	109.559158	-2634.125977	1094.934204	216.011429	-2665.412842	1043.645996	161.796753	-2658.089111	805.097107	-21.346746	-2706.297119	703.663574	-0.960880	-2541.819580	742.470886	54.890785	-2765.917236	595.226868	24.334154	-2691.832275	548.868591	88.039017	-2865.947510	450.206146	103.843117	-2971.835693	358.782623	108.970413	-2950.132080	435.356049	33.084599	-3103.396484	281.302216	62.665283	-3150.065430	329.557526	108.090485	-3066.264404	185.012680	126.231445	-3112.365479	190.574921	68.881554	-3091.737061	117.068024	178.482468	-3073.102051	87.114807	142.350906	-3134.306641	112.355667	61.741920	-2395.131836	877.286499	343.874329	-2300.003662	816.192993	334.464203	-2291.732910	952.265381	273.121826	-2217.093750	890.789795	269.085052	-2193.181641	716.215088	302.055725	-2109.616455	752.278015	254.602982	-2221.615723	516.457031	205.702927	-2277.775635	403.620758	182.160263	-2272.147705	516.049072	280.951630	-2347.118896	293.727356	226.971359	-2420.823730	289.216187	172.459000	-2246.665771	253.259018	188.349930	-2303.981689	233.579330	235.608490	-2208.605957	185.445328	145.028625	-2181.435791	192.532974	186.417603	-2249.605225	170.446304	262.087402	-2608.723145	649.650269	68.615028	-2740.739746	1042.884033	400.724457	-2259.673584	1356.320679	11.329906
148	0.592000	-2538.281250	1553.149780	134.923523	-2528.612305	1547.894287	306.685089	-2507.065918	1534.026123	-16.709528	-2406.176025	1457.922852	169.761383	-2599.744629	1360.868652	131.826370	-2493.024170	1347.620483	-119.965187	-2482.019531	1214.812622	-155.831772	-2377.122803	1274.943604	-82.587440	-2288.637695	1334.880249	-19.325037	-2664.450928	1458.954346	390.232941	-2784.704834	1391.805420	427.563965	-2754.135986	1248.278564	423.221313	-2734.501709	1119.451294	408.139771	-2412.675049	1082.393188	243.744186	-2425.732910	1055.061768	35.229382	-2597.397217	1127.019043	161.377182	-2610.443359	1101.128296	109.021469	-2612.576904	1096.337036	215.483536	-2643.743164	1045.434448	161.029785	-2637.153564	807.550293	-21.468996	-2686.199707	706.603760	-0.782742	-2521.583008	744.797607	55.974815	-2747.183105	598.991882	24.312498	-2672.928711	551.197083	87.938736	-2849.701904	455.317596	103.747238	-2957.196289	365.700806	108.452972	-2933.257324	441.628357	32.501228	-3089.702393	291.031311	61.734039	-3135.504639	339.999969	107.964287	-3054.880615	192.855896	124.420006	-3100.589844	200.345947	67.571831	-3082.770020	124.957298	177.154434	-3065.666504	94.478935	139.540009	-3123.994141	123.229492	59.796501	-2375.176758	876.994324	343.469177	-2280.864014	815.007019	333.799622	-2271.194824	951.003845	273.620453	-2197.428711	889.197021	269.546417	-2174.181152	714.485962	302.038300	-2090.401855	751.686829	255.102737	-2194.786865	512.849854	206.497971	-2245.412842	397.729279	182.592422	-2244.903564	510.218781	281.728729	-2309.800293	284.542938	227.164078	-2382.823730	276.717255	172.306030	-2207.612305	248.547043	188.094299	-2263.983154	226.262619	235.757889	-2166.232666	183.280701	144.064896	-2139.797852	191.537018	185.759186	-2206.709229	165.515396	261.453644	-2589.150879	652.506958	69.321960	-2723.521484	1047.406494	399.705627	-2243.665039	1365.343018	12.828087
